<svg xmlns="http://www.w3.org/2000/svg" width="1600" height="1000" viewBox="0 0 1600 1000" version="1.1">
	<path d="M 882 24.717 C 843.657 31.543, 801.459 43.040, 786.606 50.706 C 783.989 52.057, 782.747 52.001, 773.606 50.115 C 759.870 47.282, 734.453 43.582, 720.750 42.421 C 711.670 41.652, 711.634 41.709, 715.637 50.626 C 718.809 57.693, 728 82.986, 728 84.647 C 728 85.296, 726.132 87.201, 723.849 88.880 C 716.706 94.133, 697.978 112.983, 685.078 127.903 C 680.798 132.853, 681.152 132.814, 702.575 125.962 C 719.423 120.574, 739.828 115, 742.709 115 C 744.003 115, 747.575 119.265, 754.049 128.541 C 759.247 135.989, 764.060 142.851, 764.744 143.791 C 765.429 144.731, 769.401 150.225, 773.572 156 C 777.743 161.775, 781.529 166.636, 781.987 166.803 C 782.444 166.970, 783.138 165.620, 783.529 163.803 C 786.971 147.821, 802.913 111.384, 810.279 102.666 C 812.756 99.734, 814.575 98.636, 818.009 98.002 C 827.460 96.255, 852.390 94.019, 873.963 92.984 C 886.318 92.392, 896.626 91.707, 896.869 91.464 C 897.724 90.609, 878.318 82.121, 860.500 75.557 C 838.336 67.391, 838 67.251, 838 66.146 C 838 65.117, 855.446 48.797, 862.497 43.231 C 865.097 41.179, 869.169 37.861, 871.547 35.858 C 873.925 33.856, 877.925 30.742, 880.436 28.939 C 882.946 27.136, 885 25.287, 885 24.830 C 885 24.374, 884.888 24.061, 884.750 24.136 C 884.612 24.211, 883.375 24.473, 882 24.717 M 997.607 81.339 C 995.623 85.577, 994 89.264, 994 89.533 C 994 91.320, 983.786 111.145, 982.639 111.585 C 981.855 111.886, 974.303 109.873, 965.857 107.112 C 941.117 99.024, 915.607 93.011, 906 93.004 C 902.590 93.001, 903.275 93.775, 932.500 122.969 C 949 139.451, 962.630 153.749, 962.790 154.742 C 963.180 157.172, 953.207 170.456, 934.250 192.758 C 930.263 197.449, 927 201.724, 927 202.257 C 927 203.448, 932.858 202.630, 947 199.464 C 962.803 195.926, 982.588 192.869, 990.940 192.674 L 998.381 192.500 1004.440 200.076 C 1013.008 210.787, 1015.783 214.556, 1040.500 249.037 C 1044.900 255.175, 1049.287 260.619, 1050.250 261.134 C 1051.751 261.937, 1052 261.604, 1052.003 258.785 C 1052.009 251.378, 1049.613 229.596, 1045.895 203.258 C 1045.332 199.275, 1045.193 195.496, 1045.586 194.861 C 1046.296 193.712, 1056.222 193.911, 1084.250 195.639 C 1093.293 196.196, 1095 196.070, 1095 194.847 C 1095 193.579, 1079.498 177.582, 1070.302 169.360 C 1063.578 163.348, 1058.342 158.925, 1055.380 156.754 C 1053.688 155.514, 1047.134 150.591, 1040.816 145.814 L 1029.327 137.128 1025.030 125.814 C 1020.643 114.261, 1019.963 112.597, 1015.714 103 C 1014.374 99.975, 1011.396 93.225, 1009.096 88 C 1006.795 82.775, 1004.081 77.405, 1003.064 76.067 L 1001.215 73.633 997.607 81.339 M 635.403 87.750 C 631.530 90.912, 625.976 95.750, 623.060 98.500 C 617.388 103.850, 600 123.425, 600 124.461 C 600 124.803, 599.087 126.064, 597.971 127.262 C 596.079 129.293, 587.745 141.024, 585.503 144.814 C 584.954 145.741, 583.576 147.850, 582.441 149.500 C 578.511 155.214, 569.666 171.888, 565.468 181.500 C 553.999 207.758, 543.387 245.466, 547.926 243.833 C 548.436 243.650, 551.024 241.475, 553.676 238.999 C 581.035 213.469, 588.486 207, 590.532 207 C 591.290 207, 594.593 210.488, 597.871 214.750 C 601.150 219.013, 606.793 226.100, 610.412 230.500 C 616.664 238.102, 618.111 241.418, 616.107 243.550 C 614.837 244.901, 610.313 253.398, 597.764 278 C 591.733 289.825, 586.375 300.018, 585.858 300.652 C 585.341 301.285, 583.699 302.088, 582.209 302.436 C 571.980 304.825, 544.187 313.889, 543.453 315.076 C 542.759 316.198, 553.900 328.191, 563.820 337 L 571.140 343.500 570.535 352 C 570.202 356.675, 569.512 364.550, 569.001 369.500 C 566.720 391.619, 565.792 412.478, 566.955 415.500 C 570.112 423.705, 571.475 426, 573.192 426 C 574.187 426, 575 425.642, 575 425.203 C 575 424.765, 575.693 423.528, 576.539 422.453 C 578.201 420.345, 592.443 400.069, 602.496 385.500 C 606.336 379.935, 609.480 376.384, 610.733 376.196 C 611.848 376.029, 616.226 377.942, 620.463 380.446 C 624.699 382.951, 628.327 385, 628.525 385 C 628.723 385, 631.723 386.734, 635.192 388.853 C 650.571 398.247, 661.161 404.172, 661.667 403.666 C 661.968 403.365, 659.724 398.029, 656.680 391.809 C 650.655 379.501, 646.435 369.757, 644.417 363.500 C 643.707 361.300, 641.973 356.396, 640.563 352.603 C 636.804 342.488, 637.018 341.370, 644.250 333.408 C 655.966 320.510, 669.323 307.926, 684.314 295.664 C 691.122 290.095, 695.360 286.009, 694.314 286.020 C 693.317 286.031, 689.575 286.478, 686 287.014 C 677.308 288.316, 641.317 290.983, 632.309 290.992 C 628.354 290.997, 624.845 290.559, 624.512 290.019 C 624.179 289.480, 623.159 282.617, 622.247 274.769 C 619.972 255.201, 619.717 178.254, 621.919 175.599 C 622.699 174.658, 628.549 169.857, 634.919 164.931 C 663.414 142.894, 670.003 137.669, 669.691 137.358 C 669.508 137.175, 660.942 136.649, 650.656 136.190 C 638.990 135.669, 631.523 134.923, 630.807 134.207 C 629.708 133.108, 631.334 123.614, 633.924 116 C 634.392 114.625, 635.561 110.575, 636.522 107 C 637.483 103.425, 639.559 96.485, 641.135 91.577 C 642.711 86.670, 644 82.507, 644 82.327 C 644 81.178, 641.585 82.701, 635.403 87.750 M 781.609 172.697 C 780.082 177.618, 776.947 198.691, 770.404 248.010 C 770.043 250.734, 769.242 253.591, 768.624 254.358 C 768.006 255.124, 761.875 257.904, 755 260.534 C 726.907 271.282, 697 284.410, 697 285.993 C 697 286.362, 698.462 287.147, 700.250 287.736 C 702.038 288.326, 712.500 291.960, 723.500 295.814 C 734.500 299.667, 749.575 304.936, 757 307.523 C 764.425 310.111, 770.964 312.802, 771.530 313.504 C 772.097 314.207, 773.126 321.018, 773.818 328.641 C 775.163 343.466, 776.722 353.409, 780.697 372.500 C 782.071 379.100, 783.585 386.525, 784.062 389 C 784.538 391.475, 785.539 395.465, 786.285 397.867 L 787.642 402.235 793.665 392.867 C 796.978 387.715, 802.346 378.852, 805.594 373.171 C 808.842 367.490, 812.260 361.640, 813.189 360.171 C 814.118 358.702, 816.531 354.575, 818.551 351 C 820.572 347.425, 822.512 344.275, 822.862 344 C 823.213 343.725, 824.711 341.250, 826.191 338.500 C 828.856 333.549, 828.929 333.501, 833.691 333.553 C 836.336 333.582, 843 334.616, 848.500 335.851 C 859.021 338.213, 884.290 343.532, 904.500 347.638 C 911.100 348.979, 917.536 349.947, 918.801 349.788 L 921.103 349.500 918.687 346.240 C 917.359 344.447, 911.598 337.896, 905.886 331.684 C 900.174 325.471, 890.468 314.788, 884.317 307.944 C 878.166 301.100, 871.089 293.250, 868.589 290.500 C 863.779 285.208, 863.065 283.021, 865.490 281.008 C 866.310 280.328, 868.859 277.010, 871.155 273.636 C 874.394 268.875, 912.470 217.361, 917.285 211.226 C 917.835 210.525, 918.024 209.691, 917.706 209.373 C 917.206 208.872, 903.563 212.379, 880 219.065 C 859.927 224.761, 829.032 232.051, 826.047 231.796 C 822.881 231.525, 821.979 230.610, 815.402 221 C 811.449 215.225, 802.922 202.060, 796.454 191.745 C 783.736 171.464, 782.488 169.863, 781.609 172.697 M 1050.132 280.160 C 1049.421 281.298, 1045.115 289.490, 1040.562 298.365 C 1036.009 307.239, 1031.324 316.075, 1030.151 318 C 1028.977 319.925, 1027.704 322.175, 1027.321 323 C 1026.103 325.625, 1014.115 345.343, 1011.210 349.500 C 1008.616 353.213, 1007.987 353.546, 1002.457 354.141 C 999.181 354.494, 981.987 354.832, 964.250 354.891 C 945.942 354.953, 932 355.388, 932 355.898 C 932 357.304, 954.117 379.270, 968.750 392.398 C 976.038 398.935, 982 404.607, 982 405.001 C 982 407.596, 963.665 438.476, 955.750 449.212 C 952.587 453.502, 950 457.281, 950 457.612 C 950 457.942, 948.650 459.917, 947 462 C 945.350 464.083, 944 466.082, 944 466.442 C 944 467.041, 930.810 484.801, 926.876 489.500 C 918.902 499.023, 913.031 505.569, 904.145 514.843 C 901.512 517.592, 904.130 517.584, 857.564 514.977 C 847.699 514.425, 839.245 514.355, 838.778 514.822 C 838.311 515.289, 843.673 520.808, 850.694 527.086 C 857.714 533.363, 865.467 540.358, 867.923 542.630 L 872.388 546.760 870.532 549.630 C 867.658 554.075, 857.431 563.522, 847.349 571.043 C 842.316 574.798, 837.858 578.420, 837.442 579.094 C 836.853 580.048, 839.372 580.166, 848.853 579.630 C 881.128 577.806, 913.850 570.535, 938 559.821 C 952.741 553.281, 957.204 551.149, 963.500 547.640 C 971.531 543.165, 990.062 531.713, 994.500 528.482 C 1010.152 517.089, 1018.013 511.210, 1020.785 508.826 L 1024.070 506 1020.285 506.017 C 1018.203 506.026, 1004.800 507.390, 990.500 509.049 C 976.200 510.708, 961.499 512.338, 957.832 512.671 L 951.164 513.276 950.626 508.888 C 950.331 506.475, 949.861 494.978, 949.583 483.341 C 949.198 467.245, 949.372 461.936, 950.313 461.155 C 950.993 460.591, 953.788 459.373, 956.525 458.449 C 976.288 451.773, 1010.259 437.724, 1017.230 433.344 C 1019.282 432.055, 1021.582 431, 1022.341 431 C 1023.100 431, 1028.622 433.296, 1034.611 436.103 C 1047.589 442.184, 1064.452 449, 1066.520 449 C 1068.313 449, 1068.473 440.606, 1067.016 423 C 1066.493 416.675, 1065.769 407.861, 1065.408 403.414 L 1064.752 395.327 1070.206 389.914 C 1076 384.163, 1085.291 372.741, 1090.640 364.792 C 1099.382 351.801, 1113.003 326.670, 1111.900 325.567 C 1111.315 324.982, 1102.241 327.734, 1100.500 329.025 C 1099.577 329.710, 1081.852 336.371, 1072.463 339.563 C 1070.243 340.317, 1066.911 341.062, 1065.060 341.217 C 1062.079 341.468, 1061.594 341.156, 1060.826 338.500 C 1059.867 335.185, 1057.735 320.902, 1055.454 302.514 C 1053.773 288.959, 1052.224 278.891, 1051.746 278.413 C 1051.569 278.236, 1050.843 279.022, 1050.132 280.160 M 778 412.126 C 760.471 426.264, 734.192 444.755, 727.821 447.433 C 723.365 449.307, 720.653 448.250, 709.848 440.429 C 697.296 431.343, 689.606 425.627, 689 424.933 C 688.725 424.618, 685.800 422.398, 682.500 420 C 679.200 417.602, 676.275 415.372, 676 415.044 C 675.725 414.716, 673.635 412.997, 671.356 411.224 C 667.211 407.999, 665 407.196, 665 408.914 C 665 411.511, 675.386 436.071, 685.611 457.654 C 687.475 461.589, 689 465.252, 689 465.795 C 689 466.338, 683.263 469.128, 676.250 471.994 C 669.237 474.861, 657.200 479.785, 649.500 482.937 C 641.800 486.090, 633.925 489.269, 632 490.002 C 627.684 491.646, 625.869 492.978, 626.516 494.026 C 627.055 494.897, 638.843 498.675, 651.500 502.032 C 664.871 505.578, 692.685 510.404, 706.500 511.575 L 714.500 512.253 719.378 517.376 C 722.061 520.194, 727.892 527.225, 732.337 533 C 736.782 538.775, 740.673 543.725, 740.985 544 C 741.297 544.275, 743.101 546.525, 744.994 549 C 750.396 556.062, 758.086 565.101, 762.692 569.804 C 766.736 573.932, 767.125 574.095, 772.204 573.804 L 777.500 573.500 777.190 567 C 777.020 563.425, 776.457 556.912, 775.940 552.526 C 775.423 548.141, 775 538.342, 775 530.751 C 775 514.243, 773.505 515.582, 793 514.631 C 806.101 513.993, 822.015 512.482, 826.895 511.414 C 830.401 510.646, 830.110 510.455, 806.500 497.982 C 801 495.076, 794.925 491.719, 793 490.521 C 791.075 489.323, 787.361 487.285, 784.746 485.992 C 776.124 481.729, 775.740 481.036, 776.519 471.136 C 777.525 458.353, 780.274 439.520, 783.546 423 C 785.785 411.694, 786.275 408.317, 785.853 407.096 C 785.659 406.535, 782.125 408.799, 778 412.126 M 258.387 650.024 C 243.115 652.772, 227.663 661.183, 217.470 672.298 C 206.404 684.363, 201.511 694.889, 198.992 712.052 C 196.648 728.023, 202.012 748.527, 212.093 762.126 C 221.972 775.451, 235.530 784.558, 251.500 788.594 C 265.222 792.063, 289.159 790.509, 301.838 785.328 C 309.905 782.031, 316.118 778.645, 316.906 777.114 C 317.363 776.226, 318.042 771.583, 318.417 766.795 L 319.097 758.091 309.298 763.060 C 303.909 765.793, 296.818 768.698, 293.540 769.515 C 285.704 771.467, 271.796 771.418, 264.932 769.414 C 249.815 765, 236.537 752.844, 231.309 738.636 C 229.241 733.014, 227.003 721.416, 227.001 716.312 C 226.998 704.171, 233.630 687.892, 242.155 679.117 C 254.415 666.496, 275.528 662.597, 291.346 670.032 C 297.339 672.850, 306.710 681.414, 307.461 684.761 C 307.799 686.268, 308.948 688.625, 310.015 690 L 311.956 692.500 311.962 674 C 311.966 663.825, 311.597 654.913, 311.143 654.197 C 309.482 651.579, 298.726 649.903, 281 649.501 C 271.375 649.283, 261.199 649.518, 258.387 650.024 M 1396 660.437 C 1372.721 664.165, 1360.386 674.080, 1357.053 691.742 C 1355.360 700.719, 1358.995 711.853, 1365.767 718.431 C 1372.621 725.088, 1381.486 728.866, 1411.501 737.916 C 1422.230 741.152, 1430.103 745.455, 1432.091 749.170 C 1432.769 750.437, 1433.358 753.961, 1433.399 757 C 1433.498 764.297, 1430.898 767.940, 1422.714 771.969 C 1415.149 775.694, 1406.709 776.662, 1395.552 775.087 C 1378.554 772.687, 1368.049 763.969, 1363.588 748.560 C 1362.844 745.993, 1361.737 744.380, 1360.562 744.154 C 1358.985 743.850, 1358.801 744.253, 1359.323 746.863 C 1359.660 748.548, 1360.244 757.146, 1360.621 765.969 C 1361.096 777.081, 1361.701 782.337, 1362.590 783.075 C 1364.788 784.899, 1378.743 787.842, 1390.880 789.041 C 1417.117 791.632, 1440.570 786.190, 1451.727 774.921 C 1453.996 772.630, 1457.235 768.159, 1458.926 764.987 C 1461.662 759.854, 1462 758.289, 1462 750.750 C 1462 743.168, 1461.662 741.626, 1458.775 736.027 C 1457.001 732.587, 1453.614 728.070, 1451.250 725.988 C 1445.184 720.649, 1437.477 717.732, 1401.440 707.134 C 1388.372 703.291, 1383.005 697.123, 1384.434 687.593 C 1385.324 681.659, 1390.602 676.704, 1398.423 674.458 C 1407.442 671.869, 1423.586 672.748, 1431.223 676.245 C 1437.803 679.257, 1446.075 686.583, 1449.224 692.186 C 1452.496 698.006, 1453.219 695.103, 1452.405 679.417 C 1451.768 667.129, 1451.503 665.727, 1449.601 664.536 C 1443.200 660.530, 1410.860 658.057, 1396 660.437 M 1089.500 662.005 C 1070.556 667.104, 1057.972 677.177, 1049.480 694.040 C 1044.431 704.065, 1042.642 711.904, 1042.642 724 C 1042.642 742.941, 1048.816 757.960, 1062.003 771.100 C 1070.656 779.721, 1075.907 783.109, 1086.267 786.757 C 1096.607 790.397, 1113.160 790.521, 1124 787.040 C 1138.295 782.448, 1151.567 773.282, 1158.148 763.455 C 1162.048 757.632, 1166 749.760, 1166 747.817 C 1166 746.883, 1166.384 745.881, 1166.854 745.590 C 1168.483 744.583, 1170.245 726.849, 1169.530 718.653 C 1167.437 694.659, 1154.146 674.366, 1134.693 665.460 C 1122.510 659.882, 1102.946 658.387, 1089.500 662.005 M 1203.587 662.860 C 1203.248 663.408, 1203.798 664.119, 1204.809 664.439 C 1205.820 664.760, 1207.627 665.935, 1208.824 667.050 L 1211 669.078 1211 723.386 C 1211 783.529, 1211.428 779.582, 1204.500 783.307 C 1201.644 784.843, 1202.379 784.922, 1219.809 784.960 C 1231.770 784.986, 1237.904 784.653, 1237.500 784 C 1237.160 783.450, 1236.034 783, 1234.997 783 C 1233.960 783, 1231.866 781.929, 1230.344 780.620 L 1227.577 778.240 1227.166 734.543 C 1226.935 710.046, 1227.142 690.458, 1227.636 689.964 C 1229.430 688.170, 1231.935 691.338, 1250.199 718.500 C 1285.151 770.480, 1293.923 783.191, 1295.910 784.739 C 1296.962 785.559, 1300.508 785.897, 1306.389 785.739 L 1315.277 785.500 1315.666 727.048 C 1316.085 664.126, 1315.911 666.115, 1321.132 664.458 C 1325.741 662.995, 1321.786 662.500, 1305.499 662.500 C 1288.557 662.500, 1284.296 663.083, 1291.440 664.423 C 1293.446 664.799, 1295.890 666.269, 1297.304 667.950 L 1299.729 670.831 1299.925 707.416 C 1300.112 742.152, 1300.030 743.997, 1298.311 743.940 C 1297.120 743.900, 1293.280 739.023, 1287.094 729.690 C 1281.920 721.885, 1269.795 703.688, 1260.148 689.250 L 1242.608 663 1224.886 663 C 1215.139 663, 1206.497 662.744, 1205.683 662.432 C 1204.869 662.119, 1203.925 662.312, 1203.587 662.860 M 463.500 664.193 C 460.200 664.715, 450.637 664.907, 442.250 664.620 C 427.930 664.131, 422.600 664.952, 430.488 666.432 C 432.406 666.792, 434.391 667.862, 434.899 668.811 C 435.407 669.760, 436.150 679.856, 436.551 691.246 C 437.118 707.330, 436.998 712.297, 436.018 713.479 C 434.952 714.763, 431.071 714.998, 411.128 714.985 C 398.132 714.976, 386.984 714.639, 386.353 714.235 C 384.694 713.173, 383.679 689.317, 384.834 678.543 C 385.811 669.422, 386.240 668.578, 391.458 665.500 C 392.624 664.812, 386.258 664.500, 371.077 664.500 C 358.934 664.500, 349 664.837, 349 665.250 C 349 665.663, 349.850 666, 350.889 666 C 351.928 666, 353.841 666.861, 355.139 667.912 L 357.500 669.825 357.500 725.259 C 357.500 785.367, 357.730 782.834, 352.041 785.318 C 350.029 786.196, 353.980 786.561, 371 787.069 C 382.825 787.422, 392.864 787.508, 393.310 787.259 C 393.755 787.011, 392.305 785.911, 390.088 784.814 C 386.832 783.203, 385.928 782.136, 385.390 779.267 C 384.238 773.125, 384.388 733.217, 385.568 732.034 C 386.284 731.317, 394.844 731.052, 411.568 731.232 L 436.500 731.500 436.361 755.256 C 436.208 781.389, 435.967 782.528, 430.077 784.968 C 428.385 785.669, 427 786.562, 427 786.953 C 427 787.608, 467.604 787.265, 471 786.581 C 471.838 786.413, 471.056 785.730, 469.229 785.034 C 467.430 784.350, 465.419 782.824, 464.761 781.645 C 463.294 779.017, 462.302 677.463, 463.689 672 C 464.356 669.373, 465.504 668.043, 468.289 666.668 C 470.330 665.660, 472 664.422, 472 663.918 C 472 662.879, 471.755 662.887, 463.500 664.193 M 537.563 663.898 C 537.255 664.397, 538.577 665.733, 540.501 666.868 C 542.642 668.131, 544 669.707, 544 670.929 C 544 672.677, 541.732 679.387, 539.076 685.500 C 538.598 686.600, 537.236 689.975, 536.050 693 C 534.863 696.025, 533.513 699.400, 533.050 700.500 C 532.586 701.600, 531.236 704.975, 530.050 708 C 527.637 714.153, 527.042 715.569, 524.171 722 C 521.124 728.825, 511.631 751.877, 504.923 768.736 C 501.527 777.275, 496.902 784, 494.427 784 C 493.642 784, 493 784.563, 493.001 785.250 C 493.001 786.205, 497.350 786.500, 511.406 786.500 C 521.528 786.500, 529.597 786.156, 529.337 785.735 C 529.076 785.314, 527.256 784.298, 525.292 783.478 L 521.722 781.986 522.305 776.743 C 522.826 772.049, 526.128 762.175, 530.639 751.817 C 532.186 748.266, 532.465 748.112, 538.372 747.554 C 541.742 747.236, 551.023 747.318, 558.995 747.738 L 573.490 748.500 575.720 754.765 C 576.947 758.210, 578.958 764.870, 580.189 769.564 C 582.724 779.229, 582.511 780.070, 576.536 784 L 572.735 786.500 584.868 786.781 C 591.540 786.935, 602.512 786.935, 609.250 786.781 L 621.500 786.500 616.817 783.248 C 614.241 781.459, 611.841 778.984, 611.483 777.748 C 610.275 773.575, 604.666 758.508, 603.946 757.500 C 603.553 756.950, 602.897 754.940, 602.488 753.033 C 602.080 751.126, 601.381 748.876, 600.935 748.033 C 600.489 747.190, 598.491 741.550, 596.495 735.500 C 594.498 729.450, 592.472 723.600, 591.992 722.500 C 591.165 720.605, 583.162 696.447, 576.058 674.402 L 572.804 664.305 558.152 664.402 C 550.093 664.456, 542.290 664.161, 540.811 663.746 C 539.332 663.332, 537.871 663.400, 537.563 663.898 M 644.315 664.445 C 644.488 664.965, 645.913 665.734, 647.480 666.153 C 649.047 666.572, 650.724 667.497, 651.207 668.208 C 652.336 669.871, 651.293 711.886, 649.511 736.500 C 648.755 746.950, 647.836 760.675, 647.468 767 C 647.101 773.325, 646.380 779.286, 645.867 780.247 C 645.353 781.207, 643.148 782.904, 640.967 784.017 C 638.785 785.130, 637 786.257, 637 786.520 C 637 786.784, 646.090 787, 657.200 787 C 677.065 787, 679.487 786.515, 671.832 784.070 C 664.980 781.882, 664.643 780.448, 665.367 756.577 C 665.718 744.985, 666.252 727.175, 666.554 717 C 666.855 706.825, 667.312 697.487, 667.570 696.250 C 668.037 694.007, 671 693.012, 671 695.099 C 671 695.703, 671.647 697.616, 672.437 699.349 C 673.228 701.082, 676.173 708.350, 678.981 715.500 C 681.790 722.650, 685.029 730.525, 686.180 733 C 687.330 735.475, 689.301 740.425, 690.560 744 C 691.818 747.575, 693.815 752.750, 694.998 755.500 C 696.181 758.250, 698.745 764.775, 700.697 770 C 702.648 775.225, 705.098 781.188, 706.142 783.250 L 708.041 787 715.803 787 L 723.566 787 728.760 771.750 C 733.930 756.569, 738.250 744.283, 743.441 730 C 744.939 725.875, 747.952 717.325, 750.134 711 C 755.456 695.576, 756.241 693.904, 758 694.236 C 759.052 694.434, 759.577 696.010, 759.757 699.509 C 759.898 702.254, 760.476 709.900, 761.041 716.500 C 761.606 723.100, 762.724 738.941, 763.524 751.702 C 765.261 779.396, 764.899 781.706, 758.497 783.801 C 750.022 786.572, 752.528 787, 777.050 786.968 C 802.729 786.935, 802.604 786.963, 795.222 782.881 C 792.585 781.423, 792.237 780.630, 791.714 774.881 C 791.395 771.372, 790.680 763.550, 790.126 757.500 C 788.779 742.802, 786.219 706.289, 785.147 686.500 C 784.201 669.025, 784.647 666.845, 789.552 664.980 C 790.899 664.468, 792 663.917, 792 663.755 C 792 663.594, 782.990 663.470, 771.979 663.481 L 751.957 663.500 750.042 668.617 C 748.989 671.431, 747.359 676.156, 746.419 679.117 C 745.480 682.077, 744.326 684.927, 743.855 685.450 C 743.385 685.972, 743 687.029, 743 687.799 C 743 688.568, 742.361 690.616, 741.580 692.349 C 740.799 694.082, 738.352 700.675, 736.142 707 C 722.840 745.072, 720.942 749.700, 719.095 748.559 C 718.349 748.098, 710.952 731.155, 707.281 721.500 C 705.700 717.341, 705.341 716.453, 702.232 709 C 701.199 706.525, 699.545 702.475, 698.557 700 C 697.569 697.525, 696.375 694.600, 695.905 693.500 C 695.434 692.400, 692.746 685.650, 689.932 678.500 C 687.118 671.350, 684.432 665.098, 683.965 664.608 C 682.801 663.385, 643.908 663.226, 644.315 664.445 M 967 664.049 C 967 664.351, 968.504 665.142, 970.343 665.807 C 972.208 666.481, 974.198 668.139, 974.843 669.555 C 975.673 671.377, 976 687.298, 976 725.912 L 976 779.730 973.800 782.527 L 971.600 785.324 985.521 784.626 C 1003.395 783.729, 1004.156 783.541, 1002.940 780.342 C 1002.396 778.910, 1002 755.196, 1002 724.012 L 1002 670.153 1004.500 667.182 C 1005.875 665.548, 1007 664.051, 1007 663.856 C 1007 663.660, 998 663.500, 987 663.500 C 976 663.500, 967 663.747, 967 664.049 M 831.419 664.870 C 831.804 665.491, 832.782 666, 833.594 666 C 834.406 666, 836.180 666.727, 837.535 667.615 L 840 669.230 840 724.269 L 840 779.307 835.833 783.154 C 833.542 785.269, 831.854 787.113, 832.083 787.250 C 832.313 787.388, 843.300 787.275, 856.500 787 L 880.500 786.500 876 784.413 C 868.002 780.702, 868.536 784.448, 868.197 729.689 C 867.953 690.253, 868.148 680.522, 869.197 679.857 C 872.612 677.691, 894.327 679.566, 900.041 682.521 C 904.904 685.036, 908.731 689.980, 910.390 695.893 C 914.579 710.824, 909.413 724.231, 897.221 730.067 C 893.372 731.909, 890.695 732.342, 882.729 732.413 C 871.314 732.515, 870.357 733.756, 878.500 737.902 C 883.055 740.221, 884.611 740.450, 896 740.474 C 906.818 740.496, 909.353 740.176, 914.839 738.095 C 935.100 730.407, 944.565 706.180, 935.051 686.360 C 930.220 676.295, 922.045 669.835, 909.664 666.298 C 902.934 664.376, 830.295 663.050, 831.419 664.870 M 1093.500 677.349 C 1083.924 680.497, 1079.003 684.899, 1074.123 694.683 C 1069.763 703.424, 1068.518 712.640, 1069.979 725.355 C 1071.878 741.877, 1076.276 752.764, 1084.833 762.127 C 1091.473 769.392, 1097.396 772.242, 1106.966 772.776 C 1119.705 773.486, 1128.909 768.871, 1135.593 758.421 C 1140.944 750.057, 1143.001 742.512, 1142.993 731.282 C 1142.975 706.782, 1132.949 686.496, 1117.270 679.236 C 1110.509 676.105, 1099.855 675.259, 1093.500 677.349 M 553.861 690.769 C 553.270 692.271, 552.414 694.625, 551.960 696 C 550.448 700.578, 545.269 714.487, 542.502 721.404 C 540.999 725.160, 539.709 729.643, 539.635 731.366 L 539.500 734.500 553.750 734.777 L 568 735.055 568 732.658 C 568 731.339, 566.706 725.814, 565.125 720.380 C 561.879 709.224, 559.500 699.483, 558.517 693.328 C 557.699 688.209, 555.372 686.930, 553.861 690.769 M 866 851.377 C 854.395 854.745, 843.395 864.023, 838.135 874.882 C 830.036 891.602, 829.941 914.035, 837.903 929.809 C 841.632 937.195, 850.200 946.054, 856.898 949.448 C 872.137 957.171, 893.711 954.484, 906.062 943.325 C 908.257 941.342, 910.378 940.039, 910.776 940.430 C 911.174 940.822, 912.211 943.247, 913.080 945.821 C 914.541 950.145, 914.939 950.524, 918.330 950.810 L 922 951.121 922 925.040 L 922 898.960 900.750 899.230 L 879.500 899.500 879.500 904 L 879.500 908.500 894.284 908.777 C 908.588 909.045, 909.101 909.128, 910.109 911.341 C 911.473 914.334, 908.813 925.049, 905.414 930.258 C 902.289 935.046, 896.246 939.426, 889.817 941.561 C 882.756 943.906, 869.112 943.193, 863.277 940.172 C 851.399 934.025, 845 920.799, 845 902.396 C 845 878.726, 856.754 862.753, 875.265 861.267 C 889.189 860.149, 900.005 865.171, 905.456 875.283 C 908.260 880.485, 908.834 880.981, 912.738 881.577 C 918.896 882.516, 920.312 881.710, 919.458 877.751 C 917.344 867.960, 908.258 857.937, 897.500 853.528 C 891.701 851.152, 888.785 850.610, 880.500 850.366 C 874.357 850.185, 868.764 850.575, 866 851.377 M 526.667 852.667 C 526.300 853.033, 526 875.308, 526 902.167 L 526 951 557.052 951 L 588.105 951 587.802 945.750 L 587.500 940.500 563.924 940.417 C 550.957 940.371, 539.820 940.007, 539.174 939.608 C 538.305 939.071, 538 927.896, 538 896.641 C 538 865.120, 537.695 854.095, 536.800 853.200 C 535.535 851.935, 527.805 851.528, 526.667 852.667 M 621.679 852.654 C 621.306 853.028, 621 875.308, 621 902.167 L 621 951 657.500 951 L 694 951 694 946 C 694 942.691, 693.577 940.984, 692.750 940.954 C 692.063 940.928, 680.025 940.934, 666 940.966 C 651.975 940.999, 639.150 940.650, 637.500 940.191 L 634.500 939.356 634.500 922.928 L 634.500 906.500 661.250 906.234 L 688 905.967 688 900.500 L 688 895.033 661.250 894.766 L 634.500 894.500 634.500 879.500 L 634.500 864.500 663.500 864 L 692.500 863.500 692.500 858 L 692.500 852.500 657.429 852.237 C 638.140 852.093, 622.053 852.280, 621.679 852.654 M 759.446 852.765 C 758.867 853.169, 750.466 874.650, 740.777 900.500 C 731.089 926.350, 722.852 948.288, 722.474 949.250 C 721.861 950.808, 722.502 951, 728.326 951 C 734.244 951, 734.928 950.786, 735.530 948.750 C 736.132 946.711, 742.873 927.985, 744.530 923.750 C 745.149 922.165, 747.086 922, 765.048 922 C 779.826 922, 785.084 922.319, 785.674 923.250 C 786.110 923.938, 788.360 930.076, 790.674 936.890 C 792.988 943.705, 795.253 949.653, 795.707 950.107 C 796.593 950.993, 807.707 951.626, 808.497 950.836 C 808.757 950.576, 807.889 947.469, 806.569 943.932 C 805.248 940.394, 802.063 931.650, 799.490 924.500 C 796.917 917.350, 792.111 904.075, 788.809 895 C 785.507 885.925, 781.455 874.675, 779.805 870 C 775.588 858.051, 773.714 853.614, 772.528 852.765 C 771.962 852.361, 769.025 852.031, 766 852.031 C 762.975 852.031, 760.026 852.361, 759.446 852.765 M 962.667 852.667 C 962.300 853.033, 962 869.603, 962 889.489 C 962 920.575, 962.233 926.328, 963.663 930.523 C 968.367 944.330, 979.656 952.437, 995.872 953.654 C 1014.176 955.027, 1027.618 948.571, 1035.070 934.826 L 1038.500 928.500 1038.500 890.500 L 1038.500 852.500 1033 852.500 L 1027.500 852.500 1026.982 888.500 C 1026.495 922.388, 1026.341 924.766, 1024.360 929.034 C 1019.248 940.050, 1005.153 945.512, 991.833 941.640 C 985.243 939.724, 981.755 937.157, 978.294 931.674 C 974.941 926.362, 973.948 913.833, 974.152 879.398 C 974.234 865.591, 973.981 853.779, 973.591 853.148 C 972.840 851.932, 963.799 851.534, 962.667 852.667 M 1081.563 852.897 C 1081.258 853.391, 1080.973 875.553, 1080.930 902.147 L 1080.852 950.500 1116.926 950.762 L 1153 951.025 1153 945.527 L 1153 940.030 1123.250 939.765 L 1093.500 939.500 1093.500 923 L 1093.500 906.500 1119.788 906 C 1148.166 905.460, 1147.969 905.502, 1147.969 900 C 1147.969 895.033, 1148.067 895.051, 1119.951 894.767 L 1093.500 894.500 1093.500 879.500 L 1093.500 864.500 1110.500 863.784 C 1119.850 863.390, 1130.237 862.603, 1133.582 862.034 C 1136.927 861.465, 1141.981 861, 1144.813 861 C 1149.470 861, 1150.022 860.761, 1150.589 858.502 C 1151.786 853.730, 1150.985 853.360, 1137.935 852.659 C 1120.008 851.695, 1082.208 851.855, 1081.563 852.897 M 763.610 871.104 C 762.786 872.972, 760.690 878.550, 758.952 883.500 C 757.214 888.450, 755.403 893.400, 754.928 894.500 C 752.615 899.850, 750.001 907.688, 750.001 909.276 C 750 910.912, 751.204 911.030, 765.250 910.776 C 778.115 910.543, 780.471 910.265, 780.315 909 C 779.958 906.100, 767.168 869.768, 766.144 868.744 C 765.428 868.028, 764.643 868.759, 763.610 871.104 M 1.762 999.707 C 3.006 999.946, 4.806 999.937, 5.762 999.687 C 6.718 999.437, 5.700 999.241, 3.500 999.252 C 1.300 999.263, 0.518 999.468, 1.762 999.707 M 13.784 999.738 C 16.689 999.941, 21.189 999.939, 23.784 999.734 C 26.378 999.528, 24 999.363, 18.500 999.365 C 13 999.368, 10.878 999.536, 13.784 999.738 " stroke="none" fill="black" fill-rule="evenodd"/>
</svg>