<svg xmlns="http://www.w3.org/2000/svg" width="320" height="320" viewBox="0 0 320 320" version="1.1">
	<path d="M 176.687 56.050 C 170.189 58.659, 164.618 61.049, 164.305 61.362 C 163.475 62.191, 168.469 81.545, 173.243 96 C 178.186 110.968, 190.503 135.886, 197.871 145.826 C 200.796 149.772, 203.378 153, 203.609 153 C 203.840 153, 202.660 150.288, 200.986 146.973 C 190.594 126.386, 185.150 91.541, 187.878 63.070 C 188.480 56.783, 188.867 51.565, 188.737 51.473 C 188.606 51.381, 183.184 53.441, 176.687 56.050 M 193.122 60.541 C 190.634 77.264, 192.375 110.920, 196.417 124.257 L 197.703 128.500 197.220 121.815 C 196.071 105.927, 201.083 83.676, 210.587 62.460 C 211.016 61.501, 197.117 53, 195.121 53 C 194.638 53, 193.738 56.393, 193.122 60.541 M 216 67.744 C 216 68.228, 217.282 69.571, 218.848 70.730 C 222.687 73.568, 228.771 82.919, 231.112 89.577 C 232.162 92.566, 233.484 98.333, 234.048 102.392 C 236.441 119.598, 229.060 139.622, 216.919 148.863 C 211.115 153.281, 210.500 155.129, 216.121 151.259 C 225.751 144.631, 234.022 133.059, 236.979 122.076 C 238.571 116.167, 238.599 103.700, 237.036 96.989 C 235.411 90.012, 230.778 81.166, 225.770 75.476 C 221.583 70.719, 216 66.301, 216 67.744 M 152.998 72.598 C 142.406 82.506, 137.766 93.341, 137.622 108.500 C 137.484 123.106, 141.240 132.954, 150.930 143.394 C 155.135 147.923, 166.170 156, 168.155 156 C 170.238 156, 168.629 154.300, 164.448 152.082 C 154.101 146.592, 145.201 132.924, 142.262 118.009 C 140.754 110.350, 140.746 108.869, 142.169 100.504 C 144.034 89.539, 148.122 80.527, 154.531 73.250 C 160.235 66.773, 159.541 66.478, 152.998 72.598 M 177.963 131.250 C 177.943 137.988, 177.308 146.650, 176.553 150.500 C 175.797 154.350, 175.476 157.782, 175.839 158.126 C 176.203 158.470, 178.863 159.048, 181.750 159.410 L 187 160.069 187 156.665 C 187 148.917, 180.223 119, 178.468 119 C 178.211 119, 177.983 124.513, 177.963 131.250 M 188 138.477 C 188 139.015, 188.716 143.065, 189.590 147.477 C 190.465 151.890, 191.375 156.519, 191.613 157.763 C 191.959 159.575, 192.539 159.924, 194.522 159.513 C 195.885 159.231, 198.151 158.760, 199.559 158.466 L 202.118 157.932 199.996 155.216 C 198.829 153.722, 195.653 149.125, 192.937 145 C 190.222 140.875, 188 137.940, 188 138.477 M 230.079 156.583 C 230.127 157.748, 230.364 157.985, 230.683 157.188 C 230.972 156.466, 230.936 155.603, 230.604 155.271 C 230.272 154.939, 230.036 155.529, 230.079 156.583 M 174.800 174.482 C 167.021 176.459, 157.244 181.371, 151.921 185.975 C 145.963 191.127, 147.609 192.278, 153.692 187.214 C 166.306 176.713, 184.808 172.455, 200.297 176.489 C 207.880 178.464, 217.125 183.215, 222.056 187.670 C 224.254 189.656, 226.338 190.995, 226.687 190.646 C 228.566 188.767, 215.598 179.703, 206.015 176.198 C 197.718 173.164, 183.137 172.362, 174.800 174.482 M 177 179.721 C 173.194 180.404, 172.855 181.225, 174.058 186.837 C 175.290 192.579, 177.249 194.295, 181.329 193.204 C 184.765 192.285, 184.306 190.651, 180.588 190.566 C 176.624 190.476, 176.176 188.340, 179.947 187.512 C 184.013 186.619, 183.869 184.762, 179.765 185.175 C 177.367 185.416, 176.446 185.066, 176.206 183.822 C 175.976 182.636, 176.683 182.050, 178.613 181.822 C 180.116 181.645, 181.530 180.938, 181.756 180.250 C 182.172 178.985, 181.512 178.911, 177 179.721 M 195.526 181.122 C 193.823 185.734, 192.309 191.976, 192.780 192.447 C 193.928 193.595, 194.804 192.915, 195.440 190.385 C 196.008 188.118, 196.485 187.847, 199.009 188.352 C 200.612 188.672, 202.195 188.494, 202.528 187.956 C 202.860 187.417, 201.731 186.696, 200.019 186.354 C 197.863 185.923, 197.004 185.234, 197.228 184.116 C 197.474 182.881, 198.487 182.580, 201.525 182.838 C 204.450 183.086, 205.213 182.878, 204.414 182.051 C 202.623 180.199, 196.119 179.519, 195.526 181.122 M 160 186.559 C 160 186.866, 161.445 188.915, 163.211 191.113 C 165.765 194.291, 166.203 195.455, 165.354 196.804 C 163.544 199.678, 161.373 199.262, 157.665 195.332 C 153.339 190.746, 151.675 191.575, 155.401 196.459 C 159.019 201.203, 161.393 202.390, 164.250 200.885 C 168.838 198.469, 169.159 195.280, 165.364 189.804 C 163.127 186.575, 160 184.684, 160 186.559 M 212.013 191.101 C 209.545 192.721, 206.861 194.711, 206.048 195.523 C 203.482 198.089, 207.030 197.344, 211.349 194.409 L 215.163 191.817 214.832 194.159 C 214.649 195.446, 213.938 196.500, 213.250 196.500 C 211.916 196.500, 211.775 197.085, 212.527 199.490 C 214.078 204.444, 214.342 204.288, 216.598 197.091 C 219.763 186.996, 219.263 186.342, 212.013 191.101 M 177.300 197.801 C 172.369 199.563, 164.560 204.285, 163.356 206.233 C 161.889 208.607, 164.327 207.842, 168.584 204.592 C 180.105 195.794, 195.937 195.990, 207.235 205.068 C 211.792 208.731, 213.938 208.020, 209.500 204.318 C 200.709 196.986, 187.222 194.256, 177.300 197.801 M 194.500 215.356 C 189.310 217.727, 187.627 220.500, 187.187 227.400 C 186.699 235.067, 188.454 239.038, 193.357 241.365 C 205.831 247.285, 217.214 235.022, 211.636 221.672 C 209.142 215.703, 200.618 212.561, 194.500 215.356 M 112 228.500 L 112 242 121.500 242 C 130.967 242, 131 241.991, 131 239.500 C 131 237.090, 130.767 237, 124.500 237 L 118 237 118 234 L 118 231 124 231 C 129.733 231, 130 230.889, 130 228.500 C 130 226.111, 129.733 226, 124 226 L 118 226 118 223 L 118 220 124.500 220 C 130.767 220, 131 219.910, 131 217.500 C 131 215.009, 130.967 215, 121.500 215 L 112 215 112 228.500 M 135.162 225.980 C 135.484 236.437, 135.632 237.091, 138.273 239.730 C 140.637 242.092, 141.864 242.500, 146.605 242.500 C 151.620 242.500, 152.450 242.180, 155.082 239.234 C 157.913 236.066, 158 235.655, 158 225.484 L 158 215 155 215 L 152 215 152 224.800 C 152 235.690, 151.392 237, 146.335 237 C 141.860 237, 141 234.915, 141 224.066 L 141 215 137.912 215 L 134.823 215 135.162 225.980 M 162.389 228.499 L 162.500 241.998 165.250 241.999 C 167.833 242, 168 241.733, 168 237.607 C 168 233.679, 169.055 232, 171.524 232 C 171.722 232, 173.134 234.223, 174.662 236.941 C 177.441 241.885, 178.953 242.935, 182.270 242.225 C 183.880 241.880, 183.800 241.404, 181.397 236.988 L 178.753 232.130 180.876 229.430 C 184.050 225.396, 183.675 220.746, 179.923 217.589 C 177.229 215.322, 175.940 215, 169.562 215 L 162.277 215 162.389 228.499 M 217 228.500 C 217 236.750, 217.389 242.049, 218 242.125 C 222.357 242.670, 222.497 242.541, 222.805 237.750 L 223.110 233 227.420 233 C 235.205 233, 239.362 227.196, 236.494 220.331 C 234.688 216.010, 232.334 215, 224.066 215 L 217 215 217 228.500 M 241.155 227.803 C 238.320 234.845, 236 241.145, 236 241.803 C 236 243.703, 239.807 243.193, 242 241 C 243.100 239.900, 244 238.550, 244 238 C 244 237.450, 246.486 237, 249.525 237 C 254.498 237, 255.144 237.250, 256 239.500 C 256.725 241.406, 257.669 242, 259.975 242 C 261.639 242, 263.002 241.662, 263.004 241.250 C 263.006 240.838, 260.707 234.762, 257.895 227.750 C 252.822 215.096, 252.759 215, 249.547 215 C 246.335 215, 246.271 215.098, 241.155 227.803 M 168.714 220.619 C 168.321 221.012, 168 222.608, 168 224.167 C 168 226.809, 168.271 227, 172.031 227 C 176.410 227, 178.133 225.031, 176.308 222.114 C 175.253 220.428, 169.950 219.384, 168.714 220.619 M 194.557 222.223 C 192.248 225.519, 192.513 233.250, 195.013 235.512 C 197.864 238.092, 202.880 237.867, 205.156 235.056 C 207.656 231.968, 207.546 225.963, 204.927 222.635 C 202.213 219.184, 196.835 218.970, 194.557 222.223 M 223 224 C 223 227.564, 223.264 228, 225.418 228 C 229.520 228, 231 226.940, 231 224 C 231 221.060, 229.520 220, 225.418 220 C 223.264 220, 223 220.436, 223 224 M 247.946 226.750 C 247.393 228.262, 246.743 230.063, 246.502 230.750 C 246.205 231.594, 247.189 232, 249.531 232 C 251.439 232, 253 231.830, 253 231.622 C 253 230.650, 249.913 224, 249.462 224 C 249.181 224, 248.498 225.238, 247.946 226.750 M 140.211 259.750 L 140.500 268.500 145.980 268.500 C 150.402 268.500, 151.527 268.162, 151.804 266.750 C 152.090 265.288, 151.393 265, 147.573 265 L 143 265 143 258 C 143 252.366, 142.700 251, 141.461 251 C 140.171 251, 139.969 252.415, 140.211 259.750 M 154.211 259.750 L 154.500 268.500 159.986 268.500 C 164.416 268.500, 165.537 268.163, 165.810 266.750 C 166.086 265.315, 165.414 265, 162.073 265 C 159.119 265, 158 264.588, 158 263.500 C 158 262.452, 159.056 262, 161.500 262 C 164.333 262, 165 261.619, 165 260 C 165 258.381, 164.333 258, 161.500 258 C 159.056 258, 158 257.548, 158 256.500 C 158 255.417, 159.111 255, 162 255 C 165.333 255, 166 254.667, 166 253 C 166 251.221, 165.333 251, 159.961 251 L 153.922 251 154.211 259.750 M 175.140 252.750 C 173.682 255.490, 169 267.252, 169 268.172 C 169 269.797, 172.005 268.964, 173.232 267 C 174.062 265.672, 175.564 265, 177.705 265 C 179.906 265, 181.269 265.635, 182 267 C 183.105 269.065, 186 269.780, 186 267.988 C 186 267.431, 184.538 263.381, 182.750 258.988 C 179.422 250.805, 177.160 248.952, 175.140 252.750 M 190.913 252.282 C 186.185 255.912, 185.809 261.963, 190.048 266.202 C 192.706 268.860, 193.608 269.182, 197.087 268.715 C 202.155 268.035, 204 266.489, 204 262.923 C 204 260.488, 203.518 260, 200.565 259.446 C 198.676 259.092, 196.651 259.098, 196.065 259.460 C 194.182 260.624, 194.928 262, 197.441 262 C 200.909 262, 201.567 263.785, 198.597 265.138 C 192.543 267.896, 187.917 259.066, 193.500 255.408 C 195.821 253.887, 196.184 253.891, 198.581 255.461 C 200 256.391, 201.868 256.881, 202.731 256.550 C 204.064 256.038, 203.950 255.576, 201.975 253.474 C 199.404 250.737, 193.723 250.125, 190.913 252.282 M 206 257.545 C 206 263.162, 206.348 264.439, 208.455 266.545 C 209.805 267.895, 212.075 269, 213.500 269 C 214.925 269, 217.195 267.895, 218.545 266.545 C 220.652 264.439, 221 263.162, 221 257.545 C 221 251.718, 220.786 251, 219.046 251 C 217.332 251, 217.055 251.819, 216.796 257.646 C 216.578 262.533, 216.059 264.568, 214.834 265.338 C 211.719 267.294, 210 264.462, 210 257.378 C 210 251.667, 209.791 251, 208 251 C 206.204 251, 206 251.667, 206 257.545 M 224 260 L 224 269.100 229.740 268.800 C 234.268 268.563, 235.551 268.130, 235.814 266.750 C 236.091 265.290, 235.389 265, 231.573 265 C 228.260 265, 227 264.603, 227 263.560 C 227 262.619, 228.296 262.013, 230.742 261.810 C 233.357 261.593, 234.583 260.973, 234.815 259.750 C 235.087 258.315, 234.412 258, 231.073 258 C 228.191 258, 227 257.578, 227 256.557 C 227 255.575, 228.356 255.017, 231.250 254.807 C 234.224 254.592, 235.500 254.050, 235.500 253 C 235.500 251.875, 234.061 251.425, 229.750 251.200 L 224 250.900 224 260 M 176.605 258.588 C 175.602 261.202, 175.906 262, 177.906 262 C 179.325 262, 179.678 261.485, 179.286 259.984 C 178.581 257.291, 177.349 256.649, 176.605 258.588 M 1.762 319.707 C 3.006 319.946, 4.806 319.937, 5.762 319.687 C 6.718 319.437, 5.700 319.241, 3.500 319.252 C 1.300 319.263, 0.518 319.468, 1.762 319.707 M 12.750 319.737 C 15.638 319.939, 20.363 319.939, 23.250 319.737 C 26.138 319.535, 23.775 319.370, 18 319.370 C 12.225 319.370, 9.863 319.535, 12.750 319.737 " stroke="none" fill="black" fill-rule="evenodd"/>
</svg>