<?xml version="1.0" standalone="no"?>
<!DOCTYPE svg PUBLIC "-//W3C//DTD SVG 20010904//EN"
 "http://www.w3.org/TR/2001/REC-SVG-20010904/DTD/svg10.dtd">
<svg version="1.0" xmlns="http://www.w3.org/2000/svg"
 width="116.000000pt" height="162.000000pt" viewBox="0 0 116.000000 162.000000"
 preserveAspectRatio="xMidYMid meet">

<g transform="translate(0.000000,162.000000) scale(0.100000,-0.100000)"
fill="#000000" stroke="none">
<path d="M520 1557 c0 -7 18 -103 40 -212 44 -219 44 -215 32 -215 -5 0 -28
97 -52 215 -42 203 -45 215 -65 209 -37 -11 -38 -22 -2 -106 33 -76 87 -265
87 -302 0 -9 -4 -16 -9 -16 -5 0 -13 24 -17 53 -8 51 -9 49 -15 -48 -3 -55 -9
-117 -14 -137 l-7 -38 87 0 88 0 -7 33 c-4 17 -9 52 -13 77 -3 25 -11 50 -19
56 -19 16 -44 169 -51 317 l-6 127 -29 0 c-16 0 -28 -5 -28 -13z"/>
<path d="M600 1483 c0 -89 24 -301 35 -312 4 -3 3 28 0 69 -6 59 4 221 18 315
1 6 -10 11 -25 13 l-28 3 0 -88z"/>
<path d="M675 1551 c-8 -14 -25 -183 -24 -241 1 -30 4 -44 6 -30 8 47 45 172
63 215 l19 44 -29 10 c-16 5 -32 6 -35 2z"/>
<path d="M476 904 c-12 -31 -4 -34 109 -34 113 0 121 3 109 34 -9 24 -209 24
-218 0z"/>
<path d="M487 777 c-66 -19 -178 -97 -139 -97 5 0 16 8 25 18 9 10 37 28 61
41 114 56 264 42 354 -34 18 -15 36 -25 39 -21 9 8 -35 42 -94 72 -63 31 -174
41 -246 21z"/>
<path d="M518 743 c-35 -9 -19 -83 17 -83 34 0 40 18 8 22 l-28 4 25 11 c24
11 24 12 3 12 -25 1 -32 21 -8 21 8 0 15 5 15 10 0 10 -3 11 -32 3z"/>
<path d="M622 708 c-10 -37 -4 -59 10 -34 5 9 19 16 31 16 20 1 20 2 5 11 -25
14 -22 28 4 21 14 -3 19 -2 14 6 -4 7 -18 12 -31 12 -19 0 -26 -7 -33 -32z"/>
<path d="M420 699 c0 -9 7 -22 15 -29 19 -16 19 -29 0 -36 -9 -4 -23 4 -34 17
-11 13 -23 21 -27 16 -9 -9 35 -57 52 -57 13 0 44 27 44 38 0 4 -11 21 -25 37
-17 21 -24 25 -25 14z"/>
<path d="M720 665 c-19 -14 -28 -25 -19 -25 8 0 20 5 27 12 6 6 15 8 19 4 4
-4 2 -11 -5 -15 -13 -8 -6 -41 8 -41 4 0 11 12 14 28 4 15 9 35 12 45 7 24
-14 21 -56 -8z"/>
<path d="M505 622 c-22 -10 -47 -27 -55 -38 -15 -18 -14 -18 10 -1 73 51 152
56 223 14 55 -33 63 -23 11 12 -48 33 -133 39 -189 13z"/>
<path d="M623 515 c-37 -16 -55 -62 -41 -110 12 -43 33 -60 79 -60 33 0 46 6
66 30 21 23 24 36 20 68 -9 67 -63 98 -124 72z m78 -49 c24 -52 -17 -109 -61
-86 -20 11 -27 59 -14 94 10 26 62 20 75 -8z"/>
<path d="M90 435 l0 -85 66 0 c48 0 65 3 62 13 -3 6 -23 13 -46 15 -33 3 -42
7 -42 22 0 15 9 20 38 22 20 2 37 8 37 13 0 6 -17 11 -37 13 -30 3 -38 7 -38
23 0 16 7 19 40 19 29 0 40 4 40 15 0 12 -13 15 -60 15 l-60 0 0 -85z"/>
<path d="M240 456 c0 -80 20 -110 73 -110 59 0 77 25 77 106 0 61 -2 68 -20
68 -17 0 -19 -8 -22 -67 l-3 -68 -30 0 -30 0 -3 68 c-3 59 -5 67 -22 67 -18 0
-20 -7 -20 -64z"/>
<path d="M420 435 c0 -78 2 -85 20 -85 16 0 20 7 20 30 0 19 5 30 14 30 7 0
19 -13 26 -30 9 -21 19 -30 36 -30 23 0 23 0 6 30 -14 24 -15 33 -4 50 32 52
3 90 -69 90 l-49 0 0 -85z m88 33 c-2 -15 -11 -24 -25 -26 -19 -3 -23 1 -23
22 0 21 5 26 26 26 21 0 25 -4 22 -22z"/>
<path d="M780 436 c0 -64 3 -85 14 -89 11 -4 16 3 18 26 3 28 7 32 35 35 32 3
63 32 63 59 0 29 -39 53 -85 53 l-45 0 0 -84z m85 29 c0 -14 -8 -21 -27 -23
-22 -3 -28 1 -28 16 0 25 10 33 35 30 12 -2 20 -10 20 -23z"/>
<path d="M932 439 c-18 -44 -32 -84 -32 -89 0 -13 38 0 44 16 7 19 75 19 82
-1 6 -15 44 -22 44 -7 0 4 -14 42 -31 85 -26 64 -35 77 -54 77 -18 0 -27 -13
-53 -81z m68 -11 c0 -10 -7 -18 -15 -18 -16 0 -19 17 -9 45 5 13 8 14 15 3 5
-7 9 -21 9 -30z"/>
<path d="M102 288 c-14 -18 -17 -39 -9 -64 10 -30 42 -36 70 -13 23 20 17 25
-12 10 -24 -13 -43 2 -39 30 3 21 8 24 37 21 29 -2 32 0 21 13 -15 18 -54 20
-68 3z"/>
<path d="M206 284 c-22 -21 -20 -50 4 -74 24 -24 29 -24 58 -4 24 17 30 62 10
82 -17 17 -54 15 -72 -4z m62 -30 c2 -11 -4 -27 -13 -34 -22 -19 -50 9 -40 39
9 29 49 25 53 -5z"/>
<path d="M310 250 c0 -27 5 -50 10 -50 6 0 10 15 10 33 l0 32 20 -32 c30 -50
52 -44 48 15 -2 26 -7 45 -13 42 -5 -3 -8 -15 -7 -27 5 -32 -10 -28 -30 7 -25
44 -38 37 -38 -20z"/>
<path d="M417 293 c-4 -3 -7 -26 -7 -50 0 -32 4 -43 15 -43 8 0 15 9 15 20 0
13 7 20 20 20 11 0 20 5 20 10 0 6 -9 10 -20 10 -11 0 -20 5 -20 10 0 6 9 10
20 10 11 0 20 5 20 10 0 11 -53 14 -63 3z"/>
<path d="M510 250 l0 -50 36 0 c21 0 33 4 29 10 -3 6 -15 10 -26 10 -10 0 -19
5 -19 10 0 6 9 10 20 10 11 0 20 5 20 10 0 6 -9 10 -20 10 -11 0 -20 5 -20 10
0 6 11 10 25 10 14 0 25 5 25 10 0 6 -16 10 -35 10 l-35 0 0 -50z"/>
<path d="M600 250 c0 -27 5 -50 10 -50 6 0 10 7 10 15 0 8 5 15 10 15 6 0 13
-7 16 -15 4 -8 13 -15 21 -15 10 0 11 4 5 17 -7 11 -6 23 1 34 15 24 -7 49
-44 49 -28 0 -29 -2 -29 -50z m51 15 c-1 -15 -24 -12 -29 3 -3 9 2 13 12 10
10 -1 17 -7 17 -13z"/>
<path d="M700 250 l0 -50 36 0 c21 0 33 4 29 10 -4 6 -14 9 -22 8 -9 -2 -18 3
-20 10 -3 7 5 12 22 12 15 0 24 4 20 10 -3 6 -15 10 -26 10 -10 0 -19 5 -19
10 0 6 11 10 25 10 14 0 25 5 25 10 0 6 -16 10 -35 10 l-35 0 0 -50z"/>
<path d="M790 250 c0 -27 5 -50 10 -50 6 0 10 15 10 33 l0 32 21 -32 c31 -49
49 -43 49 17 0 55 -17 69 -22 18 l-3 -33 -20 33 c-29 48 -45 41 -45 -18z"/>
<path d="M911 286 c-18 -21 -9 -67 15 -83 19 -12 24 -11 45 6 13 11 19 20 13
21 -5 0 -15 -5 -20 -10 -19 -19 -45 0 -42 29 3 23 7 26 37 23 29 -2 32 0 21
13 -16 19 -54 19 -69 1z"/>
<path d="M1010 250 l0 -50 36 0 c21 0 33 4 29 10 -4 6 -14 9 -22 8 -9 -2 -18
3 -20 10 -3 7 4 12 16 12 12 0 21 5 21 10 0 6 -9 10 -20 10 -11 0 -20 5 -20
10 0 6 11 10 25 10 14 0 25 5 25 10 0 6 -16 10 -35 10 l-35 0 0 -50z"/>
<path d="M300 100 l0 -50 35 0 c19 0 35 5 35 10 0 6 -11 10 -25 10 -22 0 -25
4 -25 40 0 22 -4 40 -10 40 -5 0 -10 -22 -10 -50z"/>
<path d="M380 100 l0 -50 35 0 c19 0 35 5 35 10 0 6 -12 10 -26 10 -14 0 -23
4 -19 10 3 6 15 10 26 10 10 0 19 5 19 10 0 6 -9 10 -19 10 -11 0 -23 5 -26
10 -4 6 5 10 19 10 14 0 26 5 26 10 0 6 -16 10 -35 10 l-35 0 0 -50z"/>
<path d="M490 103 c-23 -52 -21 -60 9 -41 17 11 25 11 42 0 12 -7 23 -12 25
-9 8 8 -31 97 -43 97 -6 0 -21 -21 -33 -47z m36 -10 c-10 -10 -19 5 -10 18 6
11 8 11 12 0 2 -7 1 -15 -2 -18z"/>
<path d="M592 138 c-15 -15 -16 -60 0 -76 26 -26 88 -8 88 25 0 7 -11 13 -27
13 -26 0 -26 -1 -7 -15 18 -15 18 -15 -11 -13 -25 3 -30 7 -30 28 0 22 4 25
33 23 21 -1 32 3 29 10 -5 17 -60 20 -75 5z"/>
<path d="M690 112 c0 -43 14 -62 45 -62 31 0 45 19 45 62 0 49 -18 50 -22 1
-2 -30 -7 -38 -23 -38 -16 0 -21 8 -23 38 -4 49 -22 48 -22 -1z"/>
<path d="M794 136 c-3 -8 -4 -29 -2 -48 3 -30 6 -33 42 -36 25 -2 36 0 31 7
-3 6 -15 11 -26 11 -10 0 -19 5 -19 10 0 6 9 10 20 10 11 0 20 5 20 10 0 6 -9
10 -20 10 -11 0 -20 5 -20 10 0 6 9 10 19 10 11 0 23 5 26 10 4 6 -8 10 -30
10 -21 0 -38 -6 -41 -14z"/>
</g>
</svg>
